<?xml version="1.0" encoding="utf-8"?>
<!-- Generator: Adobe Illustrator 24.3.0, SVG Export Plug-In . SVG Version: 6.00 Build 0)  -->
<svg version="1.1" id="Capa_1" xmlns="http://www.w3.org/2000/svg" xmlns:xlink="http://www.w3.org/1999/xlink" x="0px" y="0px"
	 viewBox="0 0 512 512" style="enable-background:new 0 0 512 512;" xml:space="preserve">
<style type="text/css">
	.st0{fill:#FFFFFF;}
</style>
<path class="st0" d="M510.7,253.9l-29.5-88.5l-0.1-0.3l0.1-0.3l29.5-88.5c0.7-2,0.3-4.2-0.9-5.9c-1.2-1.7-3.2-2.7-5.3-2.7h-99.6h-1
	v-1V37.8c0-3.6-2.9-6.5-6.5-6.5h-95.6c-3.6,0-6.5,2.9-6.5,6.5c0,3.6,2.9,6.5,6.5,6.5h88.1h1v1v166.8v1h-1H233.2h-1v-1V45.3v-1h1
	h33.6c3.6,0,6.5-2.9,6.5-6.5c0-3.6-2.9-6.5-6.5-6.5h-33.6h-1v-1V17.6c0-9.2-7.4-16.6-16.6-16.6h-20.2c-9.2,0-16.6,7.4-16.6,16.6
	v229.9v1h-1h-19.4c-10.1,0-20.2,3.4-28.3,9.5l-8.2,6.2c-1.4,1-2.3,2.6-2.5,4.3c-0.2,1.7,0.2,3.4,1.2,4.8c1.2,1.6,3.1,2.6,5.2,2.6
	c1.4,0,2.8-0.5,3.9-1.3l8.2-6.2c5.8-4.4,13.1-6.8,20.4-6.8h19.4h1v1v25.4v1h-1H161c-3.6,0-6.5,2.9-6.5,6.5c0,3.6,2.9,6.5,6.5,6.5
	h104.6c7.6,0,13.9,5.9,14.2,13.2c0.1,3.8-1.2,7.3-3.8,10c-2.6,2.7-6.1,4.2-9.8,4.2c0,0-0.1,0-0.1,0h-80.8c-3.6,0-6.5,2.9-6.5,6.5
	c0,3.6,2.9,6.5,6.5,6.5l100.5,0c7.6,0,13.9,5.9,14.2,13.2c0.1,3.8-1.2,7.3-3.8,10c-2.6,2.7-6.1,4.2-9.9,4.2h-101
	c-3.6,0-6.5,2.9-6.5,6.5c0,3.6,2.9,6.5,6.5,6.5h80.8c3.8,0,7.3,1.5,9.9,4.2c2.6,2.7,4,6.3,3.8,10c-0.3,7.3-6.6,13.2-14.2,13.2
	l-80.3,0c-3.6,0-6.5,2.9-6.5,6.5c0,3.6,2.9,6.5,6.5,6.5h60.5h0l0.1,0c0,0,0,0,0,0c3.7,0,7.2,1.5,9.8,4.2c2.6,2.7,4,6.3,3.8,10
	c-0.3,7.3-6.6,13.2-14.2,13.2l-198.1,0.1l-1,0v-1V312v-1h1h18.4c10.1,0,20.2-3.4,28.3-9.5l7.9-5.9c2.9-2.2,3.4-6.2,1.3-9.1
	c-1.2-1.6-3.1-2.6-5.2-2.6c-1.4,0-2.8,0.5-3.9,1.3l-7.9,5.9c-5.8,4.4-13.1,6.8-20.4,6.8l-58.3,0c-3.6,0-6.5,2.9-6.5,6.5v152.6
	c0,3.6,2.9,6.5,6.5,6.5l170.3-0.1l1,0v1v29.9c0,9.2,7.4,16.6,16.6,16.6h20.2c9.2,0,16.6-7.4,16.6-16.6v-29.9v-1l1,0l12.2,0
	c14.5,0,26.7-11.5,27.2-25.7c0.2-4.8-0.9-9.5-3.1-13.6l-0.7-1.2l1.4-0.2c12.7-2.2,22.2-12.8,22.6-25.4c0.2-4.7-0.9-9.4-3.1-13.5
	l-0.7-1.2l1.4-0.2c5.8-0.9,11-3.6,15.1-7.8c5.1-5.3,7.7-12.2,7.5-19.5c-0.4-12.6-10-23.3-22.6-25.4l-1.4-0.2l0.7-1.2
	c2.2-4.1,3.3-8.8,3.1-13.6c-0.5-14.4-12.4-25.7-27.2-25.7h-32.4h-1v-1v-60.8v-1h1h51.7h1v1V256c0.1,3.1,2.4,6.5,6.5,6.5h123.2
	c3.6,0,6.5-2.9,6.5-6.5c0-3.6-2.9-6.5-6.5-6.5H337H331l5.6-1.9l62.9-21.8c2.3-0.8,4.5-3.2,4.4-6.3l0-137.8v-1h1h89.2h1.4L495,82
	l-27,81c-0.4,1.3-0.4,2.8,0,4.1l27,81l0.4,1.3h-1.4h-43.5c-3.6,0-6.5,2.9-6.5,6.5c0,3.6,2.9,6.5,6.5,6.5h53.9c2.1,0,4.1-1,5.3-2.7
	C511,258.1,511.3,255.9,510.7,253.9z M219.2,287.9v1h-1h-25.4h-1v-1V17.6c0-2,1.6-3.6,3.6-3.6h20.2c2,0,3.6,1.6,3.6,3.6V287.9z
	 M33.3,312v137.6v1h-1H15h-1v-1V312v-1h1h17.3h1V312z M219.2,464.5v29.9c0,2-1.6,3.6-3.6,3.6h-20.2c-2,0-3.6-1.6-3.6-3.6v-29.9v-1
	l1,0l25.4,0l1,0V464.5z M353.2,228.1l-53,18.3l-1.3,0.5v-1.4v-18.3v-1h1h53h5.9L353.2,228.1z"/>
</svg>
