<?xml version="1.0" encoding="utf-8"?>
<!-- Generator: Adobe Illustrator 24.3.0, SVG Export Plug-In . SVG Version: 6.00 Build 0)  -->
<svg version="1.1" id="Capa_1" xmlns="http://www.w3.org/2000/svg" xmlns:xlink="http://www.w3.org/1999/xlink" x="0px" y="0px"
	 viewBox="0 0 512 512" style="enable-background:new 0 0 512 512;" xml:space="preserve">
<style type="text/css">
	.st0{fill:#FFFFFF;}
</style>
<path class="st0" d="M67.1,449.4c-2.4,0-4.6-0.9-6.3-2.6c-1.8-1.7-2.7-4-2.7-6.4s0.9-4.7,2.6-6.4c1.7-1.7,4-2.7,6.5-2.7
	c2.4,0,4.7,0.9,6.4,2.6c1.7,1.7,2.7,4,2.7,6.4c0,2.4-0.9,4.7-2.6,6.4C71.9,448.4,69.6,449.4,67.1,449.4z"/>
<path class="st0" d="M252.2,63.1c4.5,0,8.1-3.6,8.1-8.1V10.1c0-4.5-3.6-8.1-8.1-8.1c-4.5,0-8.1,3.6-8.1,8.1V55
	C244.1,59.4,247.8,63.1,252.2,63.1z"/>
<path class="st0" d="M506.2,369.7c0-8.5-3.3-16.4-9.2-22.3l-17.8-17.7c-6-5.9-13.9-9.2-22.3-9.2c-4.9,0-9.5,1.1-13.9,3.2
	c-0.6,0.3-1.2,0.4-1.8,0.4c-1.1,0-2.2-0.5-3-1.3l-30.7-30.7c-0.8-0.8-1.3-1.9-1.3-3s0.4-2.2,1.3-3c12.8-12.9,12.8-33.7,0-46.5
	c-4-4-9-6.9-14.5-8.4c-2.2-0.6-3.5-2.8-3-5.1c0.5-2.4,0.8-4.8,0.8-7.2c0-8.8-3.4-17.1-9.6-23.3c-4-4-9-6.9-14.5-8.4
	c-2.2-0.6-3.5-2.8-3-5.1c0.5-2.4,0.8-4.8,0.8-7.2c0-8.8-3.4-17.1-9.6-23.3c-4-4-9-6.9-14.5-8.4c-2.2-0.6-3.5-2.8-3-5.1
	c2.5-11.1-0.8-22.5-8.8-30.5c-6.2-6.2-14.5-9.6-23.3-9.6c-1.1,0-2.2,0.1-3.2,0.2c-0.1,0-0.3,0-0.4,0c-0.3,0-0.5,0-0.8-0.1
	l-66.1-12.5c-3.3-0.6-8.2-1.5-13.1-1.5h0c-7,0-12.2,1.7-15.9,5.1c-0.2,0.1-0.3,0.3-0.5,0.5c-0.8,0.8-1.9,1.3-3.1,1.3
	c-0.4,0-0.9-0.1-1.3-0.2c-3.2-1-6.6-1.6-10-1.6c-8.8,0-17.1,3.4-23.3,9.6c-6.2,6.2-9.6,14.5-9.6,23.3c0,2.4,0.3,4.8,0.8,7.2
	c0.5,2.2-0.8,4.5-3,5.1c-5.4,1.5-10.4,4.4-14.4,8.4c-6.2,6.2-9.6,14.4-9.6,23.3c0,2.4,0.3,4.9,0.8,7.2c0.5,2.2-0.8,4.5-3.1,5.1
	c-5.4,1.5-10.4,4.4-14.5,8.4c-6.2,6.2-9.6,14.5-9.6,23.3c0,5.8,1.5,11.5,4.4,16.4c0.6,1.1,0.8,2.4,0.4,3.5c-0.4,1.2-1.3,2.1-2.4,2.6
	c-3.8,1.6-7.3,4-10.3,7c-12.8,12.8-12.8,33.7,0,46.6c0.8,0.8,1.3,1.9,1.3,3c0,1.1-0.4,2.2-1.3,3l-30.8,30.7c-0.8,0.8-1.9,1.3-3,1.3
	c-0.6,0-1.1-0.1-1.6-0.3c-3.9-1.6-8-2.4-12.2-2.4c-8.4,0-16.4,3.3-22.3,9.2L9.2,348.3c-6,5.9-9.2,13.9-9.2,22.3
	c0,8.5,3.3,16.4,9.2,22.3l22.2,22.2c1.5,1.5,3.5,2.4,5.7,2.4c2.2,0,4.2-0.9,5.8-2.4c1.9-2,2.9-4.9,2.8-8.4c0,0,0-0.1-0.1-0.2l-25-25
	c-2.9-2.9-4.5-6.8-4.5-10.9c0-4.1,1.6-8,4.5-10.9L38.4,342c2.9-2.9,6.8-4.5,10.9-4.5c2.6,0,5.2,0.7,7.4,1.9c0.5,0.3,1,0.7,1.4,1.3
	c0.2,0.3,0.5,0.6,0.8,0.9c0.6,0.6,1.3,1.1,2.1,1.5c0.4,0.2,0.8,0.5,1.1,0.8l101.6,101.4c0.3,0.3,0.6,0.7,0.8,1.1
	c0.4,0.8,0.9,1.5,1.5,2.1c0.6,0.6,1.2,1,1.9,1.4c0.5,0.3,1,0.6,1.3,1.1c2.3,2.8,3.5,6.2,3.5,9.8c0,4.1-1.6,8-4.5,10.9l-17.8,17.8
	c-2.9,2.9-6.8,4.5-10.9,4.5c-4.1,0-8-1.6-10.9-4.5l-25-25c-0.1-0.1-0.1-0.1-0.2-0.1c-0.1,0-0.3,0-0.4,0c-4.8,0-8.4,2-9.8,5.5
	c-1.3,3-0.6,6.5,1.8,8.8l22.2,22.2c5.9,5.9,13.9,9.2,22.3,9.2c8.4,0,16.4-3.3,22.3-9.2l17.8-17.8c6-5.9,9.2-13.9,9.2-22.3
	c0-5.4-1.4-10.7-4-15.4c-0.9-1.6-0.6-3.7,0.7-5.1l36.5-36.4l0.1-0.1c2.7-2.8,7.6-4.1,15.9-4.1c4.3,0,9,0.3,13.6,0.6
	c5.1,0.4,10.4,0.7,15.9,0.7c3.3,0,6.4-0.1,9.2-0.4c0.1,0,0.3,0,0.4,0c1.1,0,2.2,0.4,3,1.2l39.4,39.3c1.3,1.3,1.6,3.3,0.8,4.9
	c-2.1,4.3-3.2,9-3.2,13.8c0,8.5,3.3,16.4,9.2,22.3l17.8,17.8c6,5.9,13.9,9.2,22.3,9.2s16.4-3.3,22.3-9.2L497,392.1
	C502.9,386.1,506.2,378.2,506.2,369.7z M216.2,101l1.5-0.4c0.9-0.2,2.1-0.3,3.5-0.3c2.7,0,6.2,0.4,10.3,1.2l39.4,7.5
	c1.6,0.3,2.8,1.4,3.3,3c0.5,1.5,0.1,3.2-1.1,4.3l-21.9,21.9c-0.8,0.8-1.9,1.3-3,1.3c-0.7,0-1.4-0.2-2-0.5
	c-3.3-1.8-8.5-5.1-14.6-10.9c-8.6-8.2-14.6-17.5-15.4-23.8l-0.1-0.1l0-0.4c0-0.4-0.1-0.8,0-1.1L216.2,101z M178.7,110.2
	c3.2-3.2,7.4-4.9,11.9-4.9c3,0,6,0.8,8.6,2.3c0.9,0.6,1.6,1.5,1.9,2.6c3.4,13,14.7,24.8,19.4,29.3c3.4,3.2,15.3,14,27.3,17.3
	c1.1,0.3,2,0.9,2.5,1.8c1.6,2.6,2.4,5.6,2.4,8.7c0,4.5-1.7,8.7-4.9,11.9c-3.1,3.2-7.4,4.9-11.9,4.9c-4.5,0-8.7-1.7-11.9-4.9
	l-45.4-45.3c-3.1-3.1-4.9-7.4-4.9-11.9C173.8,117.6,175.5,113.4,178.7,110.2z M152.3,154.2c3.1-3.1,7.4-4.9,11.9-4.9
	c4.5,0,8.7,1.7,11.9,4.9l36.6,36.5c6.5,6.5,6.5,17.2,0,23.7c-3.2,3.2-7.4,4.9-11.9,4.9c-4.5,0-8.7-1.7-11.9-4.9l-27.7-27.7
	c-0.1,0-0.1-0.1-0.1-0.1l-8.7-8.7c-3.2-3.2-4.9-7.4-4.9-11.9C147.4,161.5,149.2,157.3,152.3,154.2z M126,198.1
	c3.2-3.1,7.4-4.9,11.9-4.9c4.5,0,8.7,1.7,11.8,4.8l27.8,27.8c3.2,3.1,4.9,7.3,4.9,11.8c0,4.5-1.7,8.7-4.9,11.9
	c-3.1,3.1-7.4,4.9-11.9,4.9c-4.5,0-8.7-1.7-11.9-4.9l-10.1-10.1l-0.1-0.1l0,0L126,221.8c-3.2-3.2-4.9-7.4-4.9-11.9
	S122.8,201.3,126,198.1z M108.4,250.9c3.2-3.2,7.4-4.9,11.9-4.9c4.5,0,8.7,1.7,11.9,4.9l10.1,10.1c3.2,3.1,4.9,7.3,4.9,11.8
	c0,4.5-1.7,8.7-4.9,11.9c-3.1,3.2-7.4,4.9-11.9,4.9c-4.5,0-8.7-1.7-11.9-4.9l-1.3-1.3l-0.1-0.1l0,0c0,0,0,0,0,0l0,0l0,0l-8.7-8.7
	C101.9,268.1,101.9,257.4,108.4,250.9z M329.7,428.3L300,398.6c-0.9-0.9-1.3-2.1-1.2-3.3c0.1-1.3,0.7-2.4,1.7-3.2
	c1.5-1.1,2.9-2.3,4.2-3.6l9-8.9c1.5-1.5,2.4-3.5,2.4-5.7c0-2.2-0.8-4.2-2.4-5.7l-5.5-5.5c-0.1-0.1-0.1-0.1-0.2-0.1
	c-0.1,0-0.1,0-0.2,0.1l-14.5,14.4c-6.8,6.8-17.2,7.7-25.5,7.7c-4.9,0-10-0.4-14.9-0.7c-4.9-0.3-9.9-0.7-14.7-0.7
	c-13,0-21.5,2.8-27.6,8.9l-35.5,35.5c-0.8,0.8-1.9,1.3-3,1.3c-1.1,0-2.2-0.4-3-1.3l-89.5-89.4c-0.8-0.8-1.3-1.9-1.3-3
	c0-1.1,0.4-2.2,1.3-3l30-29.9c0.8-0.8,1.9-1.3,3-1.3c0.7,0,1.4,0.2,2,0.5c4.8,2.6,10.3,4,15.8,4c8.8,0,17.1-3.4,23.3-9.6
	c6.2-6.2,9.6-14.5,9.6-23.3l0-0.1c0-0.1,0-0.1,0-0.2v-2l2,0l0.2,0l0.1,0c8.8,0,17.1-3.4,23.3-9.6c6.2-6.2,9.6-14.5,9.6-23.3l0-0.1
	c0-0.1,0-0.1,0-0.2v-2h2c0.1,0,0.1,0,0.2,0l0.1,0c8.8,0,17.1-3.4,23.3-9.6c6.3-6.3,9.7-14.6,9.6-23.5l0-2l2,0l0.2,0l0.1,0
	c8.8,0,17.1-3.4,23.3-9.6c6.2-6.2,9.6-14.5,9.6-23.3c0-5.5-1.4-11-4-15.8c-0.9-1.6-0.6-3.7,0.8-5.1l27.5-27.5
	c2.4-2.3,5.3-3.9,8.6-4.6l0.1,0l0.1,0c0.2,0,0.5-0.1,0.7-0.1l0.1,0l0.1,0c0.8-0.1,1.6-0.2,2.3-0.2c4.5,0,8.7,1.7,11.9,4.9
	c6.5,6.6,6.6,17.2,0,23.7l-8.8,8.7c0,0-0.1,0.1-0.1,0.1l-12.9,12.8c-0.1,0.1-0.1,0.1-0.1,0.2c-0.1,3.5,0.9,6.4,2.8,8.4
	c1.5,1.6,3.6,2.4,5.8,2.4c2.2,0,4.2-0.8,5.7-2.4l8.8-8.8l1.3-1.3c3.2-3.1,7.4-4.9,11.8-4.9c4.5,0,8.7,1.7,11.9,4.9
	c3.2,3.1,4.9,7.3,4.9,11.8c0,4.5-1.7,8.7-4.9,11.9l-8.6,8.6l0,0l-0.2,0.2l-12.9,12.8c-0.1,0.1-0.1,0.1-0.1,0.2
	c-0.1,3.5,0.9,6.4,2.8,8.4c1.5,1.6,3.6,2.4,5.8,2.4c2.1,0,4.2-0.8,5.7-2.4l10.1-10.1c3.1-3.1,7.4-4.9,11.9-4.9
	c4.5,0,8.7,1.7,11.9,4.9c3.2,3.1,4.9,7.3,4.9,11.8c0,4.5-1.7,8.7-4.9,11.9L349.2,251c-0.1,0.1-0.1,0.1-0.1,0.2
	c-0.1,3.5,0.9,6.4,2.8,8.4c1.5,1.6,3.6,2.4,5.8,2.4c2.2,0,4.2-0.8,5.7-2.4l8.6-8.6c0.1-0.1,0.1-0.1,0.2-0.2
	c3.1-3.1,7.3-4.9,11.9-4.9c4.5,0,8.7,1.7,11.9,4.9c6.5,6.5,6.5,17.2,0,23.7l-8.8,8.7l-0.1,0.1l0,0l-13.9,13.8
	c-3.1,3.1-3.2,8.3,0,11.4c1.5,1.5,3.6,2.4,5.7,2.4c2.2,0,4.2-0.8,5.7-2.4l5.2-5.2c0.8-0.8,1.9-1.3,3-1.3c1.1,0,2.2,0.4,3,1.3
	l29.3,29.3c0.8,0.8,1.3,1.9,1.3,3s-0.4,2.2-1.3,3l-89.5,89.4c-0.8,0.8-1.9,1.3-3,1.3S330.5,429.1,329.7,428.3z M485.6,380.7
	L377.6,488.5c-2.9,2.9-6.8,4.5-10.9,4.5c-4.1,0-8-1.6-10.9-4.5L338,470.7c-2.9-2.9-4.5-6.8-4.5-10.9c0-4.1,1.6-8,4.5-10.9
	l107.9-107.8c2.9-2.9,6.8-4.5,10.9-4.5c4.1,0,8,1.6,10.9,4.5l17.8,17.7c2.9,2.9,4.5,6.8,4.5,10.9
	C490.1,373.9,488.5,377.8,485.6,380.7z"/>
<path class="st0" d="M83.2,18.5l36.7,36.6c1.5,1.5,3.5,2.4,5.7,2.4c2.2,0,4.2-0.8,5.7-2.4c3.1-3.2,3.1-8.3,0-11.4L94.6,7.1
	c-1.5-1.5-3.5-2.4-5.7-2.4c-2.2,0-4.2,0.8-5.7,2.4c-1.5,1.5-2.4,3.6-2.4,5.7S81.7,17,83.2,18.5z"/>
<path class="st0" d="M373.1,43.7c-1.5,1.5-2.4,3.5-2.4,5.7c0,2.2,0.8,4.2,2.4,5.7c1.5,1.5,3.6,2.4,5.7,2.4c2.2,0,4.2-0.8,5.7-2.4
	l36.7-36.6c1.5-1.5,2.4-3.5,2.4-5.7c0-2.2-0.8-4.2-2.4-5.7c-1.5-1.5-3.6-2.4-5.7-2.4c-2.2,0-4.2,0.8-5.7,2.4L373.1,43.7z"/>
<path class="st0" d="M346.9,338.6c-1.4-2.7-4.1-4.4-7.2-4.4c-1.3,0-2.5,0.3-3.6,0.9l-0.1,0c-4,2-5.5,6.9-3.5,10.8
	c1.4,2.7,4.1,4.4,7.2,4.4c1.3,0,2.5-0.3,3.6-0.9C347.3,347.4,348.9,342.5,346.9,338.6z"/>
</svg>
