<?xml version="1.0" encoding="utf-8"?>
<!-- Generator: Adobe Illustrator 24.3.0, SVG Export Plug-In . SVG Version: 6.00 Build 0)  -->
<svg version="1.1" id="Capa_1" xmlns="http://www.w3.org/2000/svg" xmlns:xlink="http://www.w3.org/1999/xlink" x="0px" y="0px"
	 viewBox="0 0 512 512" style="enable-background:new 0 0 512 512;" xml:space="preserve">
<style type="text/css">
	.st0{fill:#FFFFFF;}
</style>
<path class="st0" d="M154.9,383.4c-2.6-3-7.2-3.3-10.2-0.6c-3,2.6-3.3,7.2-0.6,10.2l23.4,26.5v76.1c0,4,3.2,7.2,7.2,7.2
	c4,0,7.2-3.2,7.2-7.2v-78.8c0-1.8-0.6-3.5-1.8-4.8L154.9,383.4z"/>
<path class="st0" d="M103.8,325.5c-20.2-22.9-24.7-55.4-11.4-82.9l9.8-20.3c1.7-3.6,0.2-7.9-3.4-9.7c-3.6-1.7-7.9-0.2-9.7,3.4
	l-9.8,20.3c-15.8,32.7-10.4,71.5,13.6,98.7l30.2,34.3c1.4,1.6,3.4,2.4,5.4,2.4c1.7,0,3.4-0.6,4.8-1.8c3-2.6,3.3-7.2,0.6-10.2
	L103.8,325.5z"/>
<path class="st0" d="M345.9,125.8c-9.3,0-17.8,3.7-24,9.7c-5.8-11.2-17.4-18.9-30.9-18.9c-9.5,0-18.1,3.9-24.4,10.1
	c-5.9-10.8-17.3-18.2-30.5-18.2c-9.5,0-18.1,3.8-24.3,10c-5.9-10.9-17.4-18.3-30.5-18.3c-19.1,0-34.7,15.6-34.7,34.7v30.3
	c-16.6-0.7-33,7.1-42.8,21.7c-2.2,3.3-1.4,7.8,1.9,10.1c3.3,2.2,7.8,1.4,10.1-1.9c10-14.9,29.6-19.7,45.4-11.2l86.9,46.6
	c4.4,2.4,7.2,6.9,7.3,11.9c0.1,5.2-2.7,10-7.3,12.5l-11.4,6.1c-16.2,8.7-35.7,9-52.1,0.8l-26.3-13.1c-3.6-1.8-7.9-0.3-9.7,3.2
	c-1.8,3.6-0.3,7.9,3.2,9.7l26.3,13.1c10,5,20.9,7.5,31.7,7.5c11.6,0,23.2-2.8,33.7-8.5l0.9-0.5l14.4,17.4c6.6,7.9,10.2,18,10.2,28.3
	v41.7c0,4,3.2,7.2,7.2,7.2s7.2-3.2,7.2-7.2V319c0-13.7-4.8-27-13.6-37.6l-12.7-15.2c8-5.3,12.7-14.3,12.5-24c-0.1-4.1-1-8-2.7-11.6
	c6.2,6,14.7,9.6,23.9,9.6c9.6,0,18.3-4,24.6-10.3c5.9,10.6,17.3,17.7,30.2,17.7c5.5,0,10.7-1.3,15.4-3.6v17.3c0,4,3.2,7.2,7.2,7.2
	c4,0,7.2-3.2,7.2-7.2v-30.7c3.1-5.2,4.8-11.2,4.8-17.6v-52.5C380.6,141.4,365.1,125.8,345.9,125.8z M201.5,189.1l-33.5-18
	c-2.3-1.2-4.6-2.2-6.9-3.1v-33.2c0-11.1,9.1-20.2,20.2-20.2c11.1,0,20.2,9.1,20.2,20.2V189.1z M256.4,205.6c0,4-1.2,7.9-3.4,11.2
	l-37-19.9v-53.7c0-11.1,9.1-20.2,20.2-20.2c11.1,0,20.2,9.1,20.2,20.2V205.6z M311.3,205.6c0,11.1-9.1,20.2-20.2,20.2
	c-11.1,0-20.2-9.1-20.2-20.2v-54.3c0-11.1,9.1-20.2,20.2-20.2c11.1,0,20.2,9.1,20.2,20.2V205.6z M366.1,213
	c0,11.1-9.1,20.2-20.2,20.2s-20.2-9.1-20.2-20.2v-52.5c0-11.1,9.1-20.2,20.2-20.2s20.2,9.1,20.2,20.2V213z"/>
<path class="st0" d="M368.5,284.9c-4,0-7.2,3.2-7.2,7.2v65.6c0,10.9-2.9,21.6-8.4,30.9l-11,18.7c-1.6,2.7-2.4,5.9-2.4,9v79.1
	c0,4,3.2,7.2,7.2,7.2c4,0,7.2-3.2,7.2-7.2v-79.1c0-0.6,0.2-1.2,0.5-1.7l11-18.7c6.8-11.6,10.4-24.8,10.4-38.2v-65.6
	C375.8,288.2,372.5,284.9,368.5,284.9z"/>
<path class="st0" d="M328.5,81c1.2,0.8,2.6,1.2,3.9,1.2c2.4,0,4.7-1.2,6.1-3.3l36.1-56.1c2.2-3.4,1.2-7.8-2.2-10
	c-3.4-2.2-7.8-1.2-10,2.2L326.4,71C324.2,74.4,325.2,78.9,328.5,81z"/>
<path class="st0" d="M402.9,129.6c1.3,1,2.9,1.5,4.5,1.5c2.1,0,4.3-1,5.7-2.8L493.3,26c2.5-3.1,1.9-7.7-1.2-10.2s-7.7-1.9-10.2,1.2
	l-80.2,102.3C399.2,122.5,399.7,127.1,402.9,129.6z"/>
<path class="st0" d="M484.1,201.8L484.1,201.8l-32.2,17.9c-3.5,1.9-4.8,6.4-2.8,9.8c1.3,2.4,3.8,3.7,6.3,3.7c1.2,0,2.4-0.3,3.5-0.9
	l32.2-17.9c3.5-1.9,4.8-6.4,2.8-9.8C492,201.1,487.6,199.9,484.1,201.8z"/>
<path class="st0" d="M490.4,335.4l-31.2-18.8c-3.4-2.1-7.9-1-9.9,2.5c-2.1,3.4-1,7.9,2.5,9.9l31.2,18.8c1.2,0.7,2.5,1,3.7,1
	c2.5,0,4.8-1.2,6.2-3.5C494.9,342,493.8,337.5,490.4,335.4z"/>
<path class="st0" d="M403.8,383.2c-2.6-3-7.2-3.4-10.2-0.8c-3,2.6-3.4,7.2-0.8,10.2l11.6,13.6c1.4,1.7,3.5,2.5,5.5,2.5
	c1.7,0,3.3-0.6,4.7-1.7c3-2.6,3.4-7.2,0.8-10.2L403.8,383.2z"/>
<path class="st0" d="M436.1,421c-2.6-3-7.2-3.4-10.2-0.8c-3,2.6-3.4,7.2-0.8,10.2l40.4,47.3c1.4,1.7,3.5,2.5,5.5,2.5
	c1.7,0,3.3-0.6,4.7-1.7c3-2.6,3.4-7.2,0.8-10.2L436.1,421z"/>
<path class="st0" d="M272.8,61.7c0.8,0.3,1.5,0.4,2.3,0.4c3,0,5.9-1.9,6.9-5l8-24c1.3-3.8-0.8-7.9-4.6-9.2c-3.8-1.3-7.9,0.8-9.2,4.6
	l-8,24C267,56.3,269,60.4,272.8,61.7z"/>
<path class="st0" d="M156.3,78.8c1.4,2.2,3.7,3.3,6.1,3.3c1.3,0,2.7-0.4,3.9-1.2c3.4-2.2,4.3-6.6,2.2-10l-36.1-56.1
	c-2.2-3.4-6.6-4.3-10-2.2c-3.4,2.2-4.3,6.6-2.2,10L156.3,78.8z"/>
<path class="st0" d="M83.8,128.4c1.4,1.8,3.5,2.7,5.7,2.7c1.6,0,3.2-0.5,4.5-1.6c3.1-2.5,3.6-7,1.2-10.2L12.9,16.1
	c-2.5-3.1-7-3.6-10.2-1.2c-3.1,2.5-3.6,7-1.2,10.2L83.8,128.4z"/>
<path class="st0" d="M38,232.5c1.1,0.6,2.2,0.8,3.4,0.8c2.6,0,5.1-1.4,6.4-3.9c1.9-3.5,0.5-7.9-3-9.8l-34.1-17.9
	c-3.5-1.9-7.9-0.5-9.8,3c-1.9,3.5-0.5,7.9,3,9.8L38,232.5z"/>
<path class="st0" d="M47.6,319.1c-2.1-3.4-6.5-4.5-9.9-2.5L6.4,335.4C3,337.5,1.9,342,4,345.4c1.4,2.3,3.8,3.5,6.2,3.5
	c1.3,0,2.6-0.3,3.7-1L45.1,329C48.5,326.9,49.6,322.5,47.6,319.1z"/>
<path class="st0" d="M103.1,382.4c-3-2.6-7.6-2.2-10.2,0.8l-11.6,13.6c-2.6,3-2.2,7.6,0.8,10.2c1.4,1.2,3,1.7,4.7,1.7
	c2,0,4.1-0.9,5.5-2.5l11.6-13.6C106.5,389.6,106.2,385,103.1,382.4z"/>
<path class="st0" d="M70.9,420.2c-3-2.6-7.6-2.2-10.2,0.8l-40.4,47.3c-2.6,3-2.2,7.6,0.8,10.2c1.4,1.2,3,1.7,4.7,1.7
	c2,0,4.1-0.9,5.5-2.5l40.4-47.3C74.3,427.4,73.9,422.8,70.9,420.2z"/>
<path class="st0" d="M212.9,57.1c1,3,3.8,5,6.9,5c0.8,0,1.5-0.1,2.3-0.4c3.8-1.3,5.8-5.4,4.6-9.2l-8-24c-1.3-3.8-5.4-5.8-9.2-4.6
	c-3.8,1.3-5.8,5.4-4.6,9.2L212.9,57.1z"/>
</svg>
