<?xml version="1.0" encoding="utf-8"?>
<!-- Generator: Adobe Illustrator 24.3.0, SVG Export Plug-In . SVG Version: 6.00 Build 0)  -->
<svg version="1.1" id="Capa_1" xmlns="http://www.w3.org/2000/svg" xmlns:xlink="http://www.w3.org/1999/xlink" x="0px" y="0px"
	 viewBox="0 0 512 512" style="enable-background:new 0 0 512 512;" xml:space="preserve">
<style type="text/css">
	.st0{fill:#FFFFFF;}
</style>
<path class="st0" d="M259.2,105.4c39.4,0,68.2-45.4,36.9-86.7c-0.1-0.2-0.3-0.3-0.5-0.5C254.3-13,209,15.8,209,55.2
	C209,82.9,231.5,105.3,259.2,105.4z M234.5,31c0.1-0.2,0.3-0.4,0.5-0.5c35.6-26.8,75.7,13.3,48.9,48.9c-0.1,0.2-0.3,0.4-0.5,0.5
	C247.8,106.7,207.7,66.6,234.5,31z"/>
<path class="st0" d="M367.9,197.3c0-24.9-12.3-48.2-32.9-62.2c-12.5-8.6-27.2-13.1-42.4-13.1h-66.9c-41.5,0-75.2,33.7-75.3,75.3
	v66.9c0,28.4,20.5,52.6,48.3,57.6c1.1,0.2,1.9,1.1,1.9,2.2v180.4c0,1.3,1,2.3,2.3,2.3h12.1c1.3,0,2.3-1,2.3-2.3V174.5
	c0-1.3-1-2.3-2.3-2.3h-12.1c-1.3,0-2.3,1-2.3,2.3v127.8c0,1.5-1.4,2.6-2.9,2.2c-17.9-5-30.5-21.4-30.6-40.3v-66.9
	c0-32.3,26.2-58.5,58.5-58.5h66.9c11.8,0,23.2,3.5,32.9,10.2c16,10.9,25.6,29,25.6,48.4v66.9c0,16.4-9.6,31.2-24.5,38
	c-2,0.9-4,1.7-6.1,2.3c-1.4,0.4-2.9-0.7-2.9-2.2V174.5c0-1.3-1-2.3-2.3-2.3h-12.1c-1.3,0-2.3,1-2.3,2.3v329.9c0,1.3,1,2.3,2.3,2.3
	h12.1c1.3,0,2.3-1,2.3-2.3V324.1c0-1.1,0.8-2.1,1.9-2.2c4.9-0.8,9.6-2.3,14.1-4.4c20.8-9.5,34.2-30.3,34.2-53.2V197.3z"/>
<path class="st0" d="M265.3,314.4h-12.1c-1.3,0-2.3,1-2.3,2.3v187.8c0,1.3,1,2.3,2.3,2.3h12.1c1.3,0,2.3-1,2.3-2.3V316.7
	C267.5,315.4,266.5,314.4,265.3,314.4z"/>
<path class="st0" d="M55.7,284.5L40,268.9c-1-1-1.2-2.3-0.7-3.6c0.5-1.3,1.7-2,3-2h83c4.1,0,7.4-3.3,7.4-7.4c0-4.1-3.3-7.4-7.4-7.4
	h-83c-1.4,0-2.5-0.8-3-2c-0.5-1.3-0.2-2.6,0.7-3.6l15.7-15.7c0.5-0.5,0.5-1.3,0-1.8l-8.6-8.6c-0.2-0.2-0.6-0.4-0.9-0.4h0
	c-0.3,0-0.7,0.1-0.9,0.4L7.2,255c-0.2,0.2-0.4,0.6-0.4,0.9c0,0.3,0.1,0.7,0.4,0.9l38.2,38.2c0.2,0.2,0.6,0.4,0.9,0.4
	c0.3,0,0.7-0.1,0.9-0.4l8.6-8.6C56.2,285.9,56.2,285,55.7,284.5z"/>
<path class="st0" d="M511.2,256.8c0.2-0.2,0.4-0.6,0.4-0.9s-0.1-0.7-0.4-0.9L473,216.8c-0.2-0.2-0.6-0.4-0.9-0.4
	c-0.3,0-0.7,0.1-0.9,0.4l-8.6,8.6c-0.5,0.5-0.5,1.3,0,1.8l15.7,15.7c1,1,1.2,2.3,0.7,3.6c-0.5,1.3-1.7,2-3,2h-83
	c-4.1,0-7.4,3.3-7.4,7.4c0,4.1,3.3,7.4,7.4,7.4h83c1.4,0,2.5,0.8,3,2c0.5,1.3,0.2,2.6-0.7,3.6l-15.7,15.7c-0.2,0.2-0.4,0.6-0.4,0.9
	c0,0.3,0.1,0.7,0.4,0.9l8.6,8.6c0.2,0.2,0.6,0.4,0.9,0.4c0.3,0,0.7-0.1,0.9-0.4L511.2,256.8z"/>
<path class="st0" d="M52.4,104.4h12.1c0.7,0,1.3-0.6,1.3-1.3V80.9c0-1.8,1.5-3.3,3.3-3.3c0.9,0,1.7,0.3,2.3,1l67.9,67.9
	c1.4,1.4,3.2,2.2,5.2,2.2c2,0,3.8-0.8,5.2-2.2c1.4-1.4,2.2-3.2,2.2-5.2c0-2-0.8-3.8-2.2-5.2L81.9,68.2c-1-1-1.2-2.3-0.7-3.6
	c0.5-1.3,1.7-2,3-2h22.2c0.7,0,1.3-0.6,1.3-1.3V49.1c0-0.7-0.6-1.3-1.3-1.3h-54c-0.7,0-1.3,0.6-1.3,1.3v54
	C51.1,103.8,51.7,104.4,52.4,104.4z"/>
<path class="st0" d="M368.6,146.5c1.4,1.4,3.2,2.2,5.2,2.2c2,0,3.8-0.8,5.2-2.2l67.9-67.9c0.6-0.6,1.4-1,2.3-1
	c1.8,0,3.3,1.5,3.3,3.3v22.2c0,0.7,0.6,1.3,1.3,1.3H466c0.7,0,1.3-0.6,1.3-1.3v-54c0-0.7-0.6-1.3-1.3-1.3h-54
	c-0.7,0-1.3,0.6-1.3,1.3v12.1c0,0.7,0.6,1.3,1.3,1.3h22.2c1.4,0,2.5,0.8,3,2c0.5,1.3,0.2,2.6-0.7,3.6L368.6,136
	C365.7,138.9,365.7,143.6,368.6,146.5z"/>
<path class="st0" d="M151.9,370.5c0-2-0.8-3.8-2.2-5.2c-1.4-1.4-3.2-2.2-5.2-2.2c-2,0-3.8,0.8-5.2,2.2l-67.9,67.9
	c-0.6,0.6-1.4,1-2.3,1c-1.8,0-3.3-1.5-3.3-3.3v-22.2c0-0.7-0.6-1.3-1.3-1.3H52.4c-0.7,0-1.3,0.6-1.3,1.3v54c0,0.7,0.6,1.3,1.3,1.3
	h54c0.7,0,1.3-0.6,1.3-1.3v-12.1c0-0.7-0.6-1.3-1.3-1.3H84.2c-1.4,0-2.5-0.8-3-2s-0.2-2.6,0.7-3.6l67.9-67.9
	C151.1,374.3,151.9,372.5,151.9,370.5z"/>
<path class="st0" d="M466,407.4h-12.1c-0.7,0-1.3,0.6-1.3,1.3v22.2c0,1.8-1.5,3.3-3.3,3.3c-0.9,0-1.7-0.3-2.3-1L379,365.3
	c-1.4-1.4-3.2-2.2-5.2-2.2s-3.8,0.8-5.2,2.2c-2.9,2.9-2.9,7.5,0,10.4l67.9,67.9c1,1,1.2,2.3,0.7,3.6s-1.7,2-3,2H412
	c-0.7,0-1.3,0.6-1.3,1.3v12.1c0,0.7,0.6,1.3,1.3,1.3h54c0.7,0,1.3-0.6,1.3-1.3v-54C467.2,408,466.7,407.4,466,407.4z"/>
</svg>
